<?xml version="1.0" encoding="UTF-8"?>
<svg version="1.1" xmlns="http://www.w3.org/2000/svg" width="1402" height="854">
<path d="M0 0 C7.30789498 4.24712078 10.67857202 9.09709229 12.95934987 17.13771617 C13.98628942 21.90470303 13.97511728 26.58418637 13.94345093 31.44361877 C13.9481309 32.56062272 13.95281087 33.67762668 13.95763266 34.82847923 C13.96954215 38.54926856 13.960141 42.26968683 13.95068359 45.99047852 C13.95475106 48.66698268 13.95998592 51.34346179 13.96661377 54.0199585 C13.97991721 60.5214514 13.97708868 67.0228401 13.96837585 73.524337 C13.9615869 78.81007119 13.9606878 84.09577629 13.9639473 89.3815136 C13.964407 90.13523381 13.96486669 90.88895402 13.96534032 91.66551424 C13.96629955 93.19690833 13.96727219 94.72830241 13.9682581 96.25969648 C13.97680191 110.60163904 13.96699342 124.94352396 13.950857 139.28545707 C13.937452 151.58022613 13.93978536 163.8749102 13.95361328 176.16967773 C13.96968224 190.46360276 13.9759809 204.75747735 13.96677649 219.05141014 C13.96582089 220.57670747 13.96487777 222.10200482 13.9639473 223.62730217 C13.96348447 224.37768799 13.96302164 225.1280738 13.96254479 225.90119858 C13.95995905 231.17850981 13.96431685 236.45578892 13.97138596 241.73309517 C13.97981567 248.16726172 13.97748987 254.60131853 13.96154372 261.03547258 C13.95368111 264.3156354 13.9521608 267.59557855 13.96049118 270.87574577 C13.96870055 274.43680049 13.9583916 277.99734271 13.94345093 281.55836487 C13.95014309 282.58755698 13.95683526 283.6167491 13.96373022 284.67712885 C13.90586148 291.79839112 13.17211241 298.58310733 8.68310547 304.35327148 C3.0357545 309.04385055 -2.75981795 312.69804081 -9.3125 316 C-10.31845215 316.51312744 -11.3244043 317.02625488 -12.36083984 317.55493164 C-36.85357882 329.80516861 -63.31957432 336.36950767 -90.75 336.25 C-91.42759369 336.24784485 -92.10518738 336.2456897 -92.80331421 336.24346924 C-122.48855988 336.09236373 -148.25426582 327.48424874 -170.0625 306.8125 C-191.3463952 284.73122544 -198.75916362 254.82047762 -198.73828125 224.8359375 C-198.74218798 223.4241219 -198.74652652 222.01230743 -198.75126648 220.60049438 C-198.75866004 217.66087006 -198.75848939 214.72136595 -198.75317383 211.78173828 C-198.74855214 208.81283378 -198.75543319 205.84433981 -198.77368164 202.87548828 C-198.9979042 166.06449099 -195.3750836 132.31027498 -169.25 104.25 C-149.14227937 85.01199047 -121.53170762 78.53197397 -94.4375 78.9375 C-83.99994409 79.29124732 -73.85661217 80.84867886 -63.6875 83.1875 C-62.89730469 83.36748535 -62.10710937 83.5474707 -61.29296875 83.73291016 C-55.73565532 85.10981363 -50.44033318 87.00703405 -45.09667969 89.03808594 C-44.35815765 89.31699677 -43.61963562 89.59590759 -42.85873413 89.88327026 C-41.05099524 90.56626695 -39.24415534 91.25164226 -37.4375 91.9375 C-37.44638245 91.04515656 -37.45526489 90.15281311 -37.4644165 89.23342896 C-37.5448429 80.78953046 -37.60560628 72.34576217 -37.64474869 63.90156746 C-37.66554935 59.56116407 -37.6937278 55.22107939 -37.73925781 50.88085938 C-37.78298621 46.68572773 -37.80669356 42.49090104 -37.81700897 38.29555893 C-37.82435225 36.70169149 -37.83869107 35.10783917 -37.86042023 33.51410294 C-37.998463 22.96159103 -37.14041637 14.70969316 -31.3125 5.625 C-22.49718408 -2.61540401 -11.22161692 -5.07925818 0 0 Z M-135.109375 142.234375 C-149.63692851 159.10193713 -148.62466235 182.98947649 -148.62280273 203.92871094 C-148.62498509 206.66877896 -148.6431976 209.40844043 -148.66210938 212.1484375 C-148.73260305 233.69620783 -147.7513677 256.48315201 -132.33984375 273.21484375 C-122.18506054 282.83233684 -109.24386018 287.13395523 -95.4375 287.9375 C-94.35662109 288.01677734 -94.35662109 288.01677734 -93.25390625 288.09765625 C-74.54371873 288.82334649 -55.48447535 282.05144737 -39.4375 272.9375 C-37.22050978 271.13813183 -37.22050978 271.13813183 -37.19140434 268.67676353 C-37.19324793 267.72731676 -37.19509151 266.77786999 -37.19699097 265.7996521 C-37.19424164 264.7114769 -37.19149231 263.6233017 -37.18865967 262.50215149 C-37.19585022 261.30309677 -37.20304077 260.10404205 -37.21044922 258.86865234 C-37.21015717 257.61014969 -37.20986511 256.35164703 -37.20956421 255.05500793 C-37.20898904 251.59856828 -37.22076976 248.14226669 -37.23471212 244.6858592 C-37.24719223 241.0757056 -37.24838783 237.46554904 -37.25076294 233.8553772 C-37.25698573 227.0165899 -37.27340731 220.17786635 -37.29346192 213.33910716 C-37.31579611 205.55445365 -37.3268081 197.76979714 -37.33685279 189.98511958 C-37.35777288 173.96920904 -37.39296431 157.95336265 -37.4375 141.9375 C-39.35222486 140.96806508 -41.26834863 140.00139282 -43.18505859 139.03588867 C-44.25194916 138.49727707 -45.31883972 137.95866547 -46.4180603 137.4037323 C-72.66450564 124.65852466 -112.62968595 120.88573949 -135.109375 142.234375 Z " fill="#485EAB" transform="translate(632.4375,267.0625)"/>
<path d="M0 0 C17.32226219 18.01399978 22.65523106 41.6176377 22.63818359 65.89550781 C22.64418391 67.30300242 22.65099285 68.71049378 22.65853882 70.11798096 C22.67603977 73.90282877 22.68088701 77.68758591 22.68217039 81.47247028 C22.68360009 83.84253422 22.68788472 86.21257567 22.69316483 88.58263397 C22.71160277 96.86532537 22.7198421 105.14795281 22.71826172 113.43066406 C22.7170576 121.13118455 22.73822866 128.83142601 22.76974905 136.53187585 C22.79593233 143.16659613 22.80662837 149.80122524 22.8053509 156.43599677 C22.80484246 160.38881023 22.8104618 164.34137445 22.831707 168.29413605 C22.85112784 172.00766616 22.85118815 175.72070982 22.83667374 179.43425751 C22.83360103 181.43650176 22.85022937 183.43874631 22.86755371 185.44091797 C22.81205525 193.41470771 22.17799241 199.35896728 16.5078125 205.40234375 C-18.83228281 229.22564822 -69.75171925 239.03252131 -111.70385742 230.91967773 C-113.7031013 230.47570029 -115.67545533 229.97597302 -117.65234375 229.44140625 C-118.39291016 229.24272949 -119.13347656 229.04405273 -119.89648438 228.83935547 C-140.9225341 222.96701731 -158.62544058 212.02360903 -169.78515625 192.875 C-180.07531622 173.95229997 -182.98466517 151.54161854 -177.6171875 130.56640625 C-170.94189709 108.94603246 -157.50198605 94.41270229 -137.76171875 83.90234375 C-127.23916889 78.88721034 -116.18454978 75.93399422 -104.65234375 74.44140625 C-103.41871094 74.27318359 -103.41871094 74.27318359 -102.16015625 74.1015625 C-79.70100265 71.54779581 -46.16801253 71.18357186 -25.65234375 81.44140625 C-25.95303221 60.23948576 -25.95303221 60.23948576 -32.65234375 40.44140625 C-32.98878906 39.81492187 -33.32523438 39.1884375 -33.671875 38.54296875 C-38.91305621 30.06077443 -48.56615614 26.38328837 -57.8828125 24.13671875 C-81.12978467 20.13866899 -103.75552468 24.80621908 -125.7109375 32.171875 C-133.93167195 34.88745601 -142.61808269 36.02425772 -150.76953125 32.4765625 C-156.39969839 29.38113866 -160.3047666 25.81937522 -162.21875 19.578125 C-163.79306416 11.8200183 -162.5312489 5.43366499 -158.609375 -1.3671875 C-148.06581565 -15.93352026 -122.10821981 -19.23272709 -105.77734375 -21.87109375 C-69.54665052 -27.33895191 -28.24966197 -26.45887516 0 0 Z M-124.18359375 130.5390625 C-129.73929518 137.73487791 -131.1936719 146.08080054 -130.43359375 155.01171875 C-128.8507338 164.72195573 -124.80279925 172.45024519 -117.15234375 178.69140625 C-99.92044673 190.75373416 -77.19496833 190.1559958 -57.29931641 186.78173828 C-45.43643224 184.57958668 -36.53603063 180.30185303 -25.65234375 174.44140625 C-25.65234375 157.61140625 -25.65234375 140.78140625 -25.65234375 123.44140625 C-29.40625786 121.9398406 -32.40634021 120.96424096 -36.29296875 120.1875 C-37.36417969 119.97287109 -38.43539062 119.75824219 -39.5390625 119.53710938 C-40.64894531 119.31990234 -41.75882812 119.10269531 -42.90234375 118.87890625 C-43.99675781 118.65783203 -45.09117187 118.43675781 -46.21875 118.20898438 C-71.47848231 113.20241468 -104.94919009 109.80764158 -124.18359375 130.5390625 Z " fill="#0975B0" transform="translate(383.65234375,370.55859375)"/>
<path d="M0 0 C0.73863281 0.73605469 1.47726562 1.47210938 2.23828125 2.23046875 C2.86347656 2.83246094 3.48867188 3.43445313 4.1328125 4.0546875 C17.04230253 17.48871663 23.3277972 38.29797883 23.37872314 56.61256409 C23.38443329 57.85039642 23.39014343 59.08822876 23.39602661 60.36357117 C23.39727161 61.71707143 23.39839678 63.07057181 23.39941406 64.42407227 C23.40404831 65.86362839 23.40907378 67.3031833 23.41445923 68.74273682 C23.42752025 72.63722862 23.43401493 76.53170324 23.43846989 80.4262135 C23.44140868 82.8613891 23.44551482 85.29656007 23.44997406 87.73173332 C23.46362766 95.35739511 23.47330675 102.98304625 23.47717595 110.60871941 C23.48166225 119.40068553 23.4992455 128.19249661 23.52817655 136.98441559 C23.54979391 143.79054219 23.55988013 150.59662515 23.56121707 157.40278572 C23.56226435 161.46399948 23.56815676 165.52506707 23.58603668 169.58624458 C23.60252008 173.40386216 23.6046717 177.22122364 23.59589767 181.03886414 C23.59512765 182.43766911 23.59946558 183.83648789 23.60935593 185.2352581 C23.62208905 187.14858242 23.61440195 189.06200982 23.60577393 190.97535706 C23.60724049 192.04476312 23.60870705 193.11416918 23.61021805 194.21598148 C22.89120694 200.04344956 20.15492934 203.99300062 15.58984375 207.609375 C-12.07688651 226.68195483 -48.52934902 233.71332937 -81.63671875 233.54296875 C-82.74824814 233.54023453 -82.74824814 233.54023453 -83.88223267 233.53744507 C-112.12563648 233.42074464 -138.0899477 226.87870417 -159.11328125 207.0078125 C-174.05843888 191.11055023 -179.5653699 169.66480547 -179.01171875 148.28515625 C-178.04497254 128.12849777 -169.32504615 110.02624214 -154.76171875 96.23046875 C-128.24958154 74.38669736 -92.88215175 71.99891376 -60.01147461 75.16479492 C-32.84335129 78.18965248 -32.84335129 78.18965248 -24.76171875 82.23046875 C-24.52734915 56.3392241 -24.52734915 56.3392241 -36.61328125 34.421875 C-52.04911276 22.09165899 -73.03222969 22.6274635 -91.75146484 24.53515625 C-103.11539255 26.10452728 -114.00968893 29.29714524 -124.85546875 32.9609375 C-133.98384322 36.00588318 -142.56105704 36.54845291 -151.49609375 32.55859375 C-156.35159133 29.71226758 -158.95131342 26.0626895 -161.19921875 20.98046875 C-162.28405599 13.7482205 -161.90722074 6.44872174 -157.76171875 0.23046875 C-152.26542857 -6.02919506 -145.98312511 -10.14212542 -138.13671875 -12.76953125 C-137.41307129 -13.01735352 -136.68942383 -13.26517578 -135.94384766 -13.52050781 C-121.93764895 -18.16256224 -107.45086745 -21.37285809 -92.76171875 -22.76953125 C-91.55128906 -22.89199219 -90.34085938 -23.01445312 -89.09375 -23.140625 C-58.27673298 -25.68514934 -23.36474395 -22.24681362 0 0 Z M-122.36328125 130.36328125 C-128.92660675 139.12660413 -129.73132098 148.62296755 -128.76171875 159.23046875 C-126.7856129 167.89145837 -121.78367155 175.3308596 -114.57421875 180.48046875 C-96.07859633 191.88145544 -72.44226407 191.24621092 -51.87255859 186.73535156 C-46.01130127 185.33342233 -40.2958651 183.63376722 -34.76171875 181.23046875 C-33.93435211 180.88283981 -33.10698547 180.53521088 -32.25454712 180.17704773 C-26.88483705 177.5968454 -26.88483705 177.5968454 -23.88201904 172.7205658 C-23.60235391 169.59851233 -23.63615593 166.61938126 -23.78515625 163.48828125 C-23.80638046 161.80301834 -23.80638046 161.80301834 -23.82803345 160.08370972 C-23.8838947 156.50488627 -24.00931498 152.93238965 -24.13671875 149.35546875 C-24.18689028 146.92587186 -24.23251574 144.49617654 -24.2734375 142.06640625 C-24.38352674 136.11894525 -24.55071053 130.17515881 -24.76171875 124.23046875 C-31.74192408 121.81472246 -31.74192408 121.81472246 -38.91796875 120.09765625 C-40.23474609 119.84822266 -40.23474609 119.84822266 -41.578125 119.59375 C-42.90650391 119.35205078 -42.90650391 119.35205078 -44.26171875 119.10546875 C-45.14730469 118.93660156 -46.03289062 118.76773438 -46.9453125 118.59375 C-57.1906104 116.68309973 -67.08486394 116.0252192 -77.51171875 115.98046875 C-78.69765625 115.95984375 -79.88359375 115.93921875 -81.10546875 115.91796875 C-95.9615094 115.85309521 -111.91842632 118.89941608 -122.36328125 130.36328125 Z " fill="#77459B" transform="translate(849.76171875,369.76953125)"/>
<path d="M0 0 C19.74680923 18.80919095 26.24029448 45.53687483 26.99505615 71.95837402 C27.13301858 79.80436539 27.13800607 87.64963886 27.11782026 95.49661541 C27.11010154 99.44812783 27.11730082 103.39962178 27.12197876 107.35113525 C27.12739376 113.96720205 27.12034986 120.58316743 27.10595703 127.19921875 C27.08955727 134.82545948 27.09498894 142.45146043 27.11143625 150.07769561 C27.12507663 156.66930868 27.12696076 163.26084992 27.11912024 169.85247254 C27.11446811 173.77102993 27.11375217 177.68947466 27.12372971 181.6080246 C27.13243751 185.28223753 27.12630868 188.95614169 27.10904694 192.6303215 C27.10323746 194.60721165 27.11205903 196.58412816 27.12142944 198.56100464 C27.05000941 208.63862604 25.78874055 216.4409638 18.640625 223.85546875 C12.18589244 229.65556312 6.03889778 230.35588345 -2.5859375 230.08984375 C-9.25322192 229.18162866 -13.7702316 226.48413876 -18.15625 221.4296875 C-24.42442715 212.65123318 -24.57743108 204.5388267 -24.55639648 194.03833008 C-24.56078904 192.66761975 -24.56609312 191.2969121 -24.57223511 189.9262085 C-24.58369774 186.98411747 -24.58919179 184.04209811 -24.5901165 181.09998512 C-24.59206611 176.43757786 -24.61016949 171.77531746 -24.63087463 167.11296082 C-24.67994753 155.53006022 -24.71088755 143.9471198 -24.73217773 132.36413574 C-24.74874735 123.36400479 -24.7716972 114.36400029 -24.81519848 105.36395377 C-24.83684334 100.74003527 -24.84504502 96.11635778 -24.84280574 91.49239218 C-24.84448615 88.60078464 -24.85861794 85.70933114 -24.87601852 82.81777954 C-24.88418297 80.86162409 -24.87773311 78.9054242 -24.87065125 76.94926453 C-24.98476759 62.84088746 -28.17167918 50.04045159 -37.78515625 39.3359375 C-50.5336038 27.51023472 -67.45497288 24.85118197 -84.1640625 25.3046875 C-100.61376477 26.04775705 -116.57880264 30.17509791 -131.28515625 37.5859375 C-131.28662281 38.46316153 -131.28808937 39.34038555 -131.28960037 40.24419212 C-131.32668888 61.61151082 -131.3857308 82.97867115 -131.46905899 104.34586143 C-131.50882962 114.67898181 -131.54123217 125.01202624 -131.55615234 135.34521484 C-131.56917908 144.35402513 -131.59616989 153.36266817 -131.63976932 162.37138426 C-131.66236108 167.13928485 -131.6780683 171.90697935 -131.6770401 176.6749382 C-131.67629214 181.16808727 -131.69429738 185.66078116 -131.72632408 190.15381241 C-131.73480185 191.79762443 -131.7365875 193.44148764 -131.73095894 195.08531189 C-131.69923799 205.7786088 -132.07777783 215.20605622 -139.59765625 223.5234375 C-146.45514008 229.61897868 -152.4893341 230.26958348 -161.55078125 230.0546875 C-168.24562648 229.21433036 -172.7258269 226.48722317 -177.15625 221.46484375 C-182.26064058 214.40193401 -183.59187904 207.1050735 -183.54585266 198.51602173 C-183.54967821 197.74445059 -183.55350376 196.97287946 -183.55744523 196.17792737 C-183.56769486 193.61415272 -183.5637985 191.0506054 -183.55981445 188.48681641 C-183.56416539 186.63981419 -183.56934981 184.79281379 -183.57530212 182.94581604 C-183.58866246 177.94369131 -183.58927408 172.94164228 -183.58673882 167.93950319 C-183.58566708 163.75723077 -183.59055771 159.57497353 -183.59534425 155.39270437 C-183.60642923 145.52253348 -183.60688254 135.65240066 -183.60083008 125.78222656 C-183.59479073 115.61433816 -183.60710265 105.44658815 -183.62840015 95.27872336 C-183.64603761 86.53536939 -183.65201411 77.79205939 -183.6487624 69.04868829 C-183.64695279 63.83266902 -183.64955357 58.61674848 -183.66347694 53.40074539 C-183.67608553 48.49393752 -183.67408253 43.5873448 -183.66106606 38.68054008 C-183.65870731 36.885119 -183.66140968 35.08968264 -183.66968918 33.2942791 C-183.75751477 12.76043255 -183.75751477 12.76043255 -178.69140625 5.2109375 C-135.07788736 -31.96779991 -44.14926387 -38.63785774 0 0 Z " fill="#9B2D83" transform="translate(1088.28515625,370.4140625)"/>
<path d="M0 0 C6.67094806 4.03994915 11.60915281 10.06758863 13.625 17.5625 C13.9033724 20.46782948 13.90370098 23.35478061 13.89242554 26.27180481 C13.89695665 27.13629437 13.90148776 28.00078392 13.90615618 28.89147013 C13.9187933 31.78162397 13.91718025 34.67158921 13.91552734 37.56176758 C13.92151302 39.63669578 13.92831866 41.71162175 13.93588257 43.7865448 C13.95354577 49.41885749 13.95823809 55.05110941 13.95951414 60.68344712 C13.96093612 64.20360524 13.9652066 67.72374792 13.97050858 71.24390221 C13.98900991 83.52825272 13.99717905 95.81255984 13.99560547 108.09692383 C13.99440405 119.54176286 14.01550639 130.98641331 14.0470928 142.43120462 C14.07325744 152.26239178 14.08397268 162.09351735 14.08269465 171.92473906 C14.08218507 177.79415529 14.08786603 183.66340392 14.10905075 189.53278542 C14.12843614 195.05435725 14.12855532 200.57560165 14.11401749 206.09718513 C14.11192868 208.12039926 14.11663451 210.1436339 14.1287384 212.1668129 C14.14422677 214.93567248 14.1348591 217.70340804 14.11947632 220.47224426 C14.12976344 221.26681701 14.14005057 222.06138976 14.15064943 222.88004047 C14.06351557 230.01077411 11.86205629 235.91335439 7.25 241.375 C-1.1671182 248.38926517 -7.58730329 249.37847706 -18.375 248.5625 C-25.40022719 246.88280109 -30.38633657 241.34887088 -34.375 235.5625 C-36.46718655 230.5487423 -36.66517003 226.15674157 -36.64915466 220.82196045 C-36.65439134 219.95409291 -36.65962802 219.08622536 -36.66502339 218.1920588 C-36.67999842 215.29042717 -36.68072799 212.38897228 -36.68139648 209.48730469 C-36.68901966 207.40414636 -36.69744744 205.32099083 -36.70661926 203.23783875 C-36.72855597 197.58273884 -36.73736212 191.927693 -36.74244571 186.27255535 C-36.74609037 182.73764849 -36.75233103 179.20275577 -36.7594471 175.66785431 C-36.78393911 163.33048379 -36.79699288 150.9931553 -36.80053711 138.65576172 C-36.80417175 127.16432602 -36.83406284 115.67315751 -36.87594169 104.18180346 C-36.91065777 94.30898715 -36.92608578 84.43625932 -36.92678314 74.56338239 C-36.92757553 68.66985665 -36.93629677 62.77660311 -36.96478081 56.88314056 C-36.99098358 51.3377138 -36.99315396 45.79278448 -36.97712517 40.24732399 C-36.97531244 38.21646094 -36.98198539 36.18556914 -36.99794388 34.15476799 C-37.14893613 13.68602035 -37.14893613 13.68602035 -31.375 6.5625 C-22.93137541 -1.31767904 -11.13122969 -4.8464002 0 0 Z " fill="#BB3864" transform="translate(1183.375,352.4375)"/>
<path d="M0 0 C7.75384193 4.65750908 12.10334962 11.22099881 14.375 19.9375 C15.58956096 28.50139412 13.68520058 36.36552536 9.27734375 43.78515625 C4.73664323 49.80350846 -1.95209302 53.42067424 -9.27734375 54.71484375 C-17.63070063 55.50709224 -24.6716744 53.66249474 -31.625 48.9375 C-38.84534952 42.46361518 -42.01185607 35.33579041 -42.6171875 25.703125 C-42.64053126 17.43943373 -39.96585065 11.23163749 -34.625 4.9375 C-25.70524179 -3.3007486 -11.0128227 -5.08799103 0 0 Z " fill="#BF3961" transform="translate(1185.625,265.0625)"/>
</svg>
