<?xml version="1.0" encoding="UTF-8"?>
<svg version="1.1" xmlns="http://www.w3.org/2000/svg" width="1024" height="1024">
<path d="M0 0 C4.11227124 0.00675423 8.22450506 -0.00397844 12.33676814 -0.01239584 C19.53273131 -0.02473158 26.72862924 -0.02598859 33.9245994 -0.01984541 C44.62567846 -0.01073447 55.32669746 -0.01880235 66.02777193 -0.03013665 C85.14381871 -0.0497849 104.25983834 -0.05215447 123.3758928 -0.04694145 C140.10734707 -0.04238108 156.83879061 -0.04298744 173.57024454 -0.04878179 C175.81615175 -0.04953867 178.06205896 -0.05029465 180.30796618 -0.05104974 C183.69251764 -0.05219496 187.07706909 -0.05334484 190.46162055 -0.05450898 C221.9211654 -0.06521134 253.38070668 -0.06994198 284.84025263 -0.06203882 C286.02571165 -0.06174165 287.21117068 -0.06144447 288.4325527 -0.0611383 C298.05878293 -0.05868946 307.68501312 -0.05607782 317.3112433 -0.05345416 C354.85448033 -0.043353 392.39767263 -0.05170575 429.94090341 -0.07494871 C472.1416435 -0.10103299 514.34235667 -0.11386608 556.54310511 -0.10676096 C561.04466461 -0.10604492 565.5462241 -0.10537053 570.0477836 -0.10472052 C571.71032438 -0.1044658 571.71032438 -0.1044658 573.40645185 -0.10420594 C590.12216701 -0.10190499 606.83785713 -0.10987026 623.55356668 -0.12301199 C642.56884485 -0.13793515 661.58406442 -0.13875043 680.59934135 -0.12094108 C691.23317296 -0.11139104 701.86686782 -0.11278644 712.50069024 -0.13017577 C719.61386965 -0.14069172 726.72694527 -0.13652775 733.84011452 -0.12069573 C737.88622453 -0.11209295 741.93206728 -0.1095674 745.9781632 -0.12496505 C786.50083331 -0.26836574 820.03205162 8.86894237 849.65379404 37.94580324 C872.3239354 60.98159204 884.43915726 92.29759098 884.33391451 124.36867769 C884.33661341 125.74777722 884.34018435 127.12687526 884.34453898 128.50597056 C884.35394021 132.27930914 884.35101488 136.05255047 884.34598343 139.82589365 C884.34270352 143.93738863 884.35101036 148.0488634 884.35780178 152.16035183 C884.36809051 159.36115328 884.37094754 166.56192785 884.36888956 173.76273592 C884.36583663 184.47108261 884.37417006 195.1793996 884.38463881 205.8877405 C884.40397332 226.12774416 884.40960684 246.36773768 884.41075293 266.60774948 C884.41167233 282.2403994 884.41579068 297.87304536 884.42215418 313.50569399 C884.42394929 318.00704773 884.42572892 322.50840147 884.42750393 327.00975521 C884.42794603 328.12883927 884.42838812 329.24792332 884.42884362 330.40091901 C884.44115095 361.87617413 884.44904486 393.35142787 884.44815706 424.82668551 C884.4481259 426.01320859 884.44809475 427.19973168 884.44806264 428.42221001 C884.44789643 434.43586647 884.44769835 440.44952292 884.44749323 446.46317937 C884.44743339 448.25464657 884.44743339 448.25464657 884.44737235 450.08230502 C884.44729147 452.4974943 884.44720788 454.91268357 884.44712157 457.32787284 C884.44589628 494.89730913 884.4609055 532.46670931 884.4882667 570.03613527 C884.51900206 612.25588819 884.5361983 654.47561738 884.53434025 696.6953822 C884.53419099 701.19925078 884.53409358 705.70311935 884.53403162 710.20698794 C884.53399666 711.87040772 884.53399666 711.87040772 884.53396099 713.56743194 C884.53389949 731.39703558 884.54665986 749.22660783 884.56389615 767.05620214 C884.58086758 784.98289783 884.58281465 802.90954769 884.56967751 820.83624699 C884.56229832 831.47894803 884.56591545 842.12150963 884.58556219 852.76419584 C884.59759125 859.88342438 884.59493867 867.00255229 884.58062119 874.12177628 C884.57288282 878.17141585 884.57123454 882.22078626 884.58753589 886.2704065 C884.73990809 926.80326587 875.60704839 960.33912384 846.52244638 989.96875246 C823.48665758 1012.63889382 792.17065865 1024.75411568 760.09957193 1024.64887293 C758.72047241 1024.65157183 757.34137436 1024.65514277 755.96227907 1024.6594974 C752.18894048 1024.66889863 748.41569916 1024.66597331 744.64235597 1024.66094186 C740.530861 1024.65766194 736.41938623 1024.66596879 732.30789779 1024.67276021 C725.10709635 1024.68304893 717.90632178 1024.68590596 710.7055137 1024.68384798 C699.99716702 1024.68079505 689.28885003 1024.68912848 678.58050912 1024.69959723 C658.34050547 1024.71893174 638.10051195 1024.72456526 617.86050015 1024.72571135 C602.22785022 1024.72663075 586.59520427 1024.7307491 570.96255564 1024.7371126 C566.4612019 1024.73890772 561.95984816 1024.74068735 557.45849441 1024.74246235 C556.33941036 1024.74290445 555.22032631 1024.74334655 554.06733062 1024.74380204 C522.59207549 1024.75610937 491.11682175 1024.76400328 459.64156412 1024.76311548 C458.45504103 1024.76308433 457.26851794 1024.76305317 456.04603961 1024.76302107 C450.03238316 1024.76285485 444.01872671 1024.76265677 438.00507026 1024.76245165 C436.81075879 1024.76241176 435.61644732 1024.76237187 434.3859446 1024.76233077 C431.97075533 1024.7622499 429.55556606 1024.7621663 427.14037679 1024.76207999 C389.57094049 1024.76085471 352.00154031 1024.77586392 314.43211435 1024.80322512 C272.21236143 1024.83396048 229.99263224 1024.85115672 187.77286743 1024.84929867 C183.26899885 1024.84914942 178.76513027 1024.849052 174.26126169 1024.84899004 C173.15231517 1024.84896673 172.04336865 1024.84894342 170.90081768 1024.84891941 C153.07121404 1024.84885792 135.2416418 1024.86161828 117.41204749 1024.87885457 C99.48535179 1024.895826 81.55870193 1024.89777307 63.63200264 1024.88463593 C52.9893016 1024.87725674 42.34674 1024.88087387 31.70405379 1024.90052061 C24.58482525 1024.91254968 17.46569733 1024.90989709 10.34647335 1024.89557961 C6.29683377 1024.88784125 2.24746336 1024.88619296 -1.80215688 1024.90249431 C-42.33501625 1025.05486652 -75.87087422 1015.92200681 -105.50050284 986.83740481 C-128.1706442 963.801616 -140.28586605 932.48561707 -140.1806233 900.41453035 C-140.18332221 899.03543083 -140.18689315 897.65633279 -140.19124777 896.27723749 C-140.200649 892.5038989 -140.19772368 888.73065758 -140.19269223 884.9573144 C-140.18941231 880.84581942 -140.19771916 876.73434465 -140.20451058 872.62285622 C-140.21479931 865.42205477 -140.21765633 858.2212802 -140.21559836 851.02047213 C-140.21254543 840.31212544 -140.22087885 829.60380845 -140.23134761 818.89546754 C-140.25068212 798.65546389 -140.25631564 778.41547037 -140.25746172 758.17545857 C-140.25838113 742.54280864 -140.26249947 726.91016269 -140.26886297 711.27751406 C-140.27065809 706.77616032 -140.27243772 702.27480658 -140.27421273 697.77345284 C-140.27487587 696.09482676 -140.27487587 696.09482676 -140.27555241 694.38228904 C-140.28785974 662.90703392 -140.29575366 631.43178017 -140.29486586 599.95652254 C-140.2948347 598.76999945 -140.29480354 597.58347637 -140.29477144 596.36099803 C-140.29460523 590.34734158 -140.29440715 584.33368513 -140.29420203 578.32002868 C-140.29416214 577.12571721 -140.29412225 575.93140575 -140.29408115 574.70090302 C-140.29400027 572.28571375 -140.29391668 569.87052448 -140.29383036 567.45533521 C-140.29260508 529.88589892 -140.30761429 492.31649874 -140.33497549 454.74707277 C-140.36571085 412.52731986 -140.38290709 370.30759066 -140.38104905 328.08782585 C-140.38089979 323.58395727 -140.38080237 319.08008869 -140.38074042 314.57622011 C-140.38071711 313.46727359 -140.3806938 312.35832707 -140.38066978 311.21577611 C-140.38060829 293.38617246 -140.39336865 275.55660022 -140.41060494 257.72700591 C-140.42757638 239.80031021 -140.42952344 221.87366036 -140.4163863 203.94696106 C-140.40900712 193.30426002 -140.41262425 182.66169842 -140.43227098 172.01901221 C-140.44430005 164.89978367 -140.44164747 157.78065576 -140.42732999 150.66143177 C-140.41959162 146.6117922 -140.41794333 142.56242179 -140.43424469 138.51280155 C-140.58661689 97.97994217 -131.45375719 64.44408421 -102.36915518 34.81445559 C-94.42997789 27.00129698 -85.59931501 20.84983822 -75.9233544 15.39160402 C-74.98104971 14.85793215 -74.03874502 14.32426027 -73.06788565 13.77441652 C-67.28918192 10.69775495 -61.3517889 8.32957554 -55.1733544 6.20410402 C-54.15688833 5.84711428 -54.15688833 5.84711428 -53.1198876 5.48291262 C-50.73885604 4.69975437 -48.3445233 4.04127755 -45.9233544 3.39160402 C-44.97957867 3.13459827 -44.03580293 2.87759252 -43.06342794 2.61279871 C-28.90557079 -0.61632559 -14.43578281 -0.03543041 0 0 Z " fill="#FEFEFE" transform="translate(139.9233543984592,-0.3916040239855647)"/>
<path d="M0 0 C0.84175781 -0.02900391 1.68351563 -0.05800781 2.55078125 -0.08789062 C6.74628014 -0.13083668 8.93677315 -0.03240533 12.59375 2.20703125 C14.5 4.3125 14.5 4.3125 14.5 6.3125 C15.11875 6.580625 15.7375 6.84875 16.375 7.125 C18.5 8.3125 18.5 8.3125 20.5 11.3125 C21.40772061 21.69851258 20.99789572 30.79869247 16.5 40.3125 C15.90778004 41.65593661 15.31957142 43.00114537 14.734375 44.34765625 C13.39381927 47.42021269 12.02671944 50.47898103 10.640625 53.53125 C9.19881796 56.71840239 7.81901924 59.92280662 6.484375 63.15625 C5.98502441 64.34238892 5.98502441 64.34238892 5.47558594 65.55249023 C4.85032074 67.04101572 4.23776686 68.53498324 3.64160156 70.03540039 C1.44315109 75.19742471 -1.54883733 78.77767668 -5.35449219 82.86791992 C-9.24792315 87.30407425 -12.37562812 92.27148172 -15.625 97.1875 C-22.41241586 107.33534755 -29.46583824 117.23745266 -36.78515625 127.0078125 C-38.57218175 129.40950965 -40.33549245 131.82717426 -42.09375 134.25 C-51.56395182 147.28082333 -61.66402954 159.39293249 -72.5 171.3125 C-73.263125 172.1684375 -74.02625 173.024375 -74.8125 173.90625 C-78.12285339 177.61921394 -81.42456507 181.28990168 -85 184.75 C-87.78840206 187.4873558 -90.2396468 190.3919663 -92.6875 193.4375 C-96.62767088 198.33408842 -100.77745749 202.96498669 -105.07495117 207.54541016 C-107.76282671 210.41327122 -110.3948674 213.31706838 -112.9765625 216.28125 C-123.40883449 228.25688375 -134.5980622 239.5132484 -145.8125 250.75 C-146.42379761 251.3638858 -147.03509521 251.97777161 -147.66491699 252.61026001 C-149.4156249 254.36681458 -151.16999644 256.11961542 -152.92578125 257.87109375 C-153.45849136 258.40578278 -153.99120148 258.9404718 -154.54005432 259.49136353 C-158.269434 263.197217 -158.269434 263.197217 -160.5 264.3125 C-159.07048896 270.97674432 -157.42490778 277.5516225 -155.625 284.125 C-155.35961426 285.09695313 -155.09422852 286.06890625 -154.82080078 287.0703125 C-153.19468024 292.96339702 -151.428449 298.77353806 -149.42578125 304.55078125 C-147.98707732 308.84261113 -146.78809764 313.19807088 -145.5625 317.5546875 C-144.42257717 321.58632633 -143.24805322 325.60660338 -142.0625 329.625 C-141.85246338 330.33744873 -141.64242676 331.04989746 -141.42602539 331.78393555 C-140.9978777 333.2357232 -140.569573 334.68746456 -140.14111328 336.13916016 C-139.09180145 339.69627133 -138.04605684 343.25443054 -137 346.8125 C-136.58335096 348.22917185 -136.16668428 349.64583852 -135.75 351.0625 C-133.25 359.5625 -133.25 359.5625 -132.62402344 361.69116211 C-132.21085912 363.09569447 -131.79745109 364.50015516 -131.38378906 365.90454102 C-130.28643863 369.63128523 -129.19440344 373.35949178 -128.109375 377.08984375 C-127.7680957 378.25966797 -127.7680957 378.25966797 -127.41992188 379.453125 C-126.98217372 380.9539758 -126.54591122 382.45526093 -126.11132812 383.95703125 C-125.02778655 387.71842054 -125.02778655 387.71842054 -123.5 391.3125 C-122.97792969 390.65765625 -122.45585938 390.0028125 -121.91796875 389.328125 C-117.63696123 384.01997557 -113.27579234 378.78859837 -108.75 373.6875 C-108.30293701 373.16704102 -107.85587402 372.64658203 -107.39526367 372.11035156 C-105.37847468 369.871884 -103.73818928 368.40792029 -100.92578125 367.28125 C-96.26222433 367.34132803 -93.60826619 371.17178844 -90.5 374.3125 C-89.675 375.09625 -88.85 375.88 -88 376.6875 C-85.80561076 380.52768117 -85.71868711 383.9826982 -86.5 388.3125 C-88.07072658 390.94885889 -90.13764831 392.77945353 -92.44140625 394.78125 C-93.34390358 395.62907043 -93.34390358 395.62907043 -94.26463318 396.49401855 C-96.82311626 398.8973069 -99.43089571 401.24398596 -102.03979492 403.59228516 C-103.94444198 405.32170182 -105.81779641 407.08084769 -107.69140625 408.84375 C-108.28715958 409.35965698 -108.8829129 409.87556396 -109.49671936 410.40710449 C-111.88194924 412.66083982 -113.40181356 414.14694034 -113.68435669 417.50097656 C-113.4531796 419.83692721 -113.04530508 422.03053061 -112.5 424.3125 C-112.27666992 425.37855469 -112.05333984 426.44460938 -111.82324219 427.54296875 C-111.43894043 429.00669922 -111.43894043 429.00669922 -111.046875 430.5 C-110.76005859 431.60150391 -110.47324219 432.70300781 -110.17773438 433.83789062 C-109.71850586 435.55782227 -109.71850586 435.55782227 -109.25 437.3125 C-108.93353516 438.51583984 -108.61707031 439.71917969 -108.29101562 440.95898438 C-106.44743429 447.91822346 -104.50845102 454.83803705 -102.41943359 461.72705078 C-99.72485718 470.71995252 -97.47652359 479.83677193 -95.1484375 488.9296875 C-93.65823583 494.74059224 -92.09829701 500.53046821 -90.5 506.3125 C-84.07879821 500.98426873 -78.09105993 495.2481914 -72.46484375 489.08203125 C-69.98880319 486.85211798 -67.96276941 486.57049351 -64.6640625 486.71875 C-59.31325888 488.18684052 -55.47274668 492.85337999 -52.5 497.3125 C-52.87902595 505.14570307 -55.42317258 509.36047872 -60.75 515.125 C-61.94496094 516.43017578 -61.94496094 516.43017578 -63.1640625 517.76171875 C-63.93492187 518.60347656 -64.70578125 519.44523438 -65.5 520.3125 C-67.28091309 522.32427219 -69.04659605 524.34547659 -70.7890625 526.390625 C-72.5 528.3125 -72.5 528.3125 -74.5234375 530.234375 C-78.21142823 533.83731438 -78.21142823 533.83731438 -79.85546875 538.58203125 C-79.45445797 544.35472138 -77.52288753 549.8223393 -75.73828125 555.29296875 C-74.11239574 560.40803925 -72.82968143 565.61435098 -71.5 570.8125 C-69.94840951 576.85298075 -68.39682833 582.86910456 -66.5 588.8125 C-64.6784514 594.53201267 -63.17728154 600.31253626 -61.6875 606.125 C-59.60686838 614.23521714 -57.37981598 622.28504148 -55 630.3125 C-52.33587651 639.29896829 -49.88828352 648.32203529 -47.57177734 657.40405273 C-45.98552145 663.58526051 -44.22547045 669.64963742 -42.1640625 675.69140625 C-41.39384066 678.73151715 -41.18592738 681.18875065 -41.5 684.3125 C-42.75 686.18359375 -42.75 686.18359375 -44.5 687.75 C-45.14066406 688.3378125 -45.78132812 688.925625 -46.44140625 689.53125 C-47.12074219 690.1190625 -47.80007813 690.706875 -48.5 691.3125 C-49.14839844 691.8796875 -49.79679688 692.446875 -50.46484375 693.03125 C-51.79483039 694.19005024 -53.12824861 695.34492221 -54.46484375 696.49609375 C-57.25804426 698.98906541 -59.85484125 701.65716123 -62.48046875 704.32421875 C-65.12898478 706.93175194 -67.9127748 709.35667483 -70.73828125 711.76953125 C-72.39815811 713.22330366 -73.95933981 714.73391586 -75.5 716.3125 C-79.87882528 714.85289157 -81.09502521 711.43371641 -83.3125 707.625 C-84.3001318 705.96888671 -85.28980751 704.31399106 -86.28125 702.66015625 C-86.80460938 701.78504395 -87.32796875 700.90993164 -87.8671875 700.00830078 C-90.60978732 695.48022255 -93.46034809 691.02209813 -96.3125 686.5625 C-96.89926514 685.64339844 -97.48603027 684.72429688 -98.09057617 683.77734375 C-99.29081699 681.89793989 -100.4915845 680.0188723 -101.69287109 678.14013672 C-104.67614152 673.47217697 -107.65074699 668.79870871 -110.625 664.125 C-111.49644653 662.75589478 -111.49644653 662.75589478 -112.38549805 661.35913086 C-118.60185879 651.58832048 -124.7815333 641.79445958 -130.95898438 631.99902344 C-136.78744612 622.75830472 -142.63084011 613.5274344 -148.5 604.3125 C-155.34871863 593.5595994 -162.15846334 582.78244669 -168.95898438 571.99902344 C-174.78744612 562.75830472 -180.63084011 553.5274344 -186.5 544.3125 C-193.34871863 533.5595994 -200.15846334 522.78244669 -206.95898438 511.99902344 C-212.78744612 502.75830472 -218.63084011 493.5274344 -224.5 484.3125 C-231.34871863 473.5595994 -238.15846334 462.78244669 -244.95898438 451.99902344 C-250.81212818 442.71917262 -256.67665233 433.44665007 -262.5625 424.1875 C-263.14515625 423.27025146 -263.7278125 422.35300293 -264.328125 421.40795898 C-267.13799824 416.99238777 -269.96414582 412.58908908 -272.83203125 408.2109375 C-273.34693115 407.42348145 -273.86183105 406.63602539 -274.39233398 405.82470703 C-275.35779661 404.35163331 -276.32716853 402.88111198 -277.30102539 401.41357422 C-280.5 396.53275223 -280.5 396.53275223 -280.5 394.3125 C-288.18686294 400.04119189 -295.35552543 406.33385859 -302.57128906 412.63378906 C-305.55454338 415.2303532 -308.55736043 417.80382785 -311.5625 420.375 C-312.13572998 420.86572998 -312.70895996 421.35645996 -313.29956055 421.86206055 C-314.4549681 422.85104001 -315.61048538 423.8398913 -316.76611328 424.82861328 C-319.09470161 426.82145471 -321.42170262 428.81614418 -323.74853516 430.81103516 C-324.91339056 431.80962183 -326.07842879 432.80799528 -327.24365234 433.80615234 C-330.20088522 436.33962277 -333.15547058 438.87607624 -336.10546875 441.41796875 C-341.43835322 446.00856553 -346.78185945 450.57011398 -352.25 455 C-356.62507747 458.54995321 -360.80549192 462.26813821 -364.96875 466.0625 C-368.47799486 469.18182876 -372.13162123 472.10999133 -375.78125 475.0625 C-378.42147729 477.24751569 -380.9672972 479.50421391 -383.5 481.8125 C-386.81989486 484.83532421 -390.19764112 487.73762161 -393.6875 490.5625 C-400.12711993 495.77768515 -406.35455403 501.22581752 -412.60351562 506.66601562 C-416.71453746 510.23511079 -420.85499723 513.76991308 -424.9921875 517.30859375 C-427.4606452 519.42012393 -429.92327728 521.53824034 -432.3828125 523.66015625 C-433.01952881 524.20857178 -433.65624512 524.7569873 -434.31225586 525.32202148 C-435.53294372 526.37361523 -436.75256464 527.42644916 -437.97094727 528.48071289 C-440.41433993 530.5831837 -442.81386872 532.52174582 -445.5 534.3125 C-445.06330578 542.10404433 -444.48695379 549.85000394 -443.5859375 557.6015625 C-442.84475757 564.12599527 -442.14809285 570.6531577 -441.5 577.1875 C-441.41761078 578.01786774 -441.33522156 578.84823547 -441.25033569 579.70376587 C-440.91566603 583.08689553 -440.58286957 586.47020846 -440.25 589.85351562 C-440.00088938 592.38159916 -439.75051265 594.90955505 -439.5 597.4375 C-439.41967529 598.25661865 -439.33935059 599.0757373 -439.2565918 599.91967773 C-438.84329089 604.08359167 -438.39750123 608.24043102 -437.89453125 612.39453125 C-437.79720703 613.21099121 -437.69988281 614.02745117 -437.59960938 614.86865234 C-437.41375319 616.41018404 -437.22146236 617.95095926 -437.02148438 619.49072266 C-436.56151742 623.32288922 -436.1964526 626.64321193 -437.5 630.3125 C-439.32592773 632.62426758 -439.32592773 632.62426758 -441.68359375 634.95703125 C-442.52857422 635.79814453 -443.37355469 636.63925781 -444.24414062 637.50585938 C-445.13294922 638.37017578 -446.02175781 639.23449219 -446.9375 640.125 C-448.26491211 641.45047852 -448.26491211 641.45047852 -449.61914062 642.80273438 C-456.21938948 649.3125 -456.21938948 649.3125 -458.5 649.3125 C-492.25 590.8125 -492.25 590.8125 -494.125 587.55834961 C-495.37020933 585.40274309 -496.62017861 583.24987887 -497.875 581.09985352 C-500.77890302 576.11141698 -503.63067228 571.11346207 -506.31260681 566.00138855 C-515.45004298 548.26531639 -515.45004298 548.26531639 -531.33300781 537.33105469 C-535.71852229 535.26972454 -539.79556228 532.63040463 -543.9375 530.125 C-545.83953567 528.99857877 -547.74321104 527.87492213 -549.6484375 526.75390625 C-550.61362305 526.18559082 -551.57880859 525.61727539 -552.57324219 525.03173828 C-558.38742015 521.61636948 -564.21388862 518.22210748 -570.0402832 514.82763672 C-579.3018144 509.43131745 -588.55615575 504.02275746 -597.79785156 498.5925293 C-599.007161 497.88199791 -600.21647089 497.17146731 -601.42578125 496.4609375 C-602.01789398 496.11297623 -602.61000671 495.76501495 -603.22006226 495.4065094 C-607.21504736 493.06091152 -611.22054533 490.73406845 -615.23046875 488.4140625 C-617.2578129 487.23437568 -619.28515667 486.05468822 -621.3125 484.875 C-622.24980957 484.33738037 -623.18711914 483.79976074 -624.15283203 483.24584961 C-624.99571777 482.7535083 -625.83860352 482.26116699 -626.70703125 481.75390625 C-627.4441333 481.32795166 -628.18123535 480.90199707 -628.94067383 480.46313477 C-629.45525146 480.08342529 -629.9698291 479.70371582 -630.5 479.3125 C-630.5 477.3125 -630.5 477.3125 -628.3515625 475.08203125 C-627.41054688 474.16808594 -626.46953125 473.25414062 -625.5 472.3125 C-624.58331976 471.28164602 -623.67458084 470.24368189 -622.7734375 469.19921875 C-621.80756201 468.13256763 -620.84141337 467.06616381 -619.875 466 C-619.41738281 465.45021484 -618.95976563 464.90042969 -618.48828125 464.33398438 C-616.19223559 461.86956203 -614.50923656 460.48284188 -611.13500977 459.91333008 C-608.22203656 459.87151452 -605.40130795 460.04750772 -602.5 460.3125 C-601.46327148 460.39669189 -600.42654297 460.48088379 -599.35839844 460.56762695 C-595.79725479 460.88519286 -592.24332563 461.25269811 -588.6875 461.625 C-572.46417871 463.26350386 -556.21184372 464.31211281 -539.93823242 465.30981445 C-538.4927729 465.39950752 -538.4927729 465.39950752 -537.01811218 465.49101257 C-535.21301472 465.60259941 -533.40777455 465.71191217 -531.60237122 465.81843567 C-525.61416558 466.18738004 -519.72421574 466.8712428 -513.77954102 467.68481445 C-510.14818452 467.96199119 -507.56252896 468.081954 -504.53857422 465.89208984 C-502.66248099 463.85579791 -501.04730032 461.75244414 -499.4375 459.5 C-498.84171143 458.72188965 -498.24592285 457.9437793 -497.63208008 457.14208984 C-496.44278341 455.58823004 -495.26495613 454.02551462 -494.09960938 452.45361328 C-492.0459082 449.70468787 -489.88301259 447.07441809 -487.6875 444.4375 C-486.29151571 442.72929002 -484.89567956 441.02095897 -483.5 439.3125 C-482.00014304 437.47904964 -480.5001406 435.64571829 -479 433.8125 C-478.2575 432.905 -477.515 431.9975 -476.75 431.0625 C-447.5 395.3125 -418.25 359.5625 -389 323.8125 C-388.26265625 322.91015625 -387.5253125 322.0078125 -386.765625 321.078125 C-385.21804503 319.18901015 -383.66574224 317.30375696 -382.109375 315.421875 C-381.33078125 314.47828125 -380.5521875 313.5346875 -379.75 312.5625 C-379.05390625 311.72203125 -378.3578125 310.8815625 -377.640625 310.015625 C-375.13937021 306.85710617 -372.82014798 303.60613665 -370.5 300.3125 C-380.98920972 293.62874039 -391.47981882 286.9474383 -402 280.3125 C-413.45951193 273.08393256 -424.8842952 265.80093439 -436.31152344 258.52148438 C-446.63492365 251.94584136 -456.96445981 245.38053747 -467.31713867 238.85107422 C-474.32659946 234.42781987 -481.31799422 229.97642023 -488.30859375 225.5234375 C-494.19766667 221.77359303 -500.09478596 218.03686771 -506 214.3125 C-513.78298144 209.40384054 -521.54777456 204.46704694 -529.30859375 199.5234375 C-535.19766667 195.77359303 -541.09478596 192.03686771 -547 188.3125 C-554.78298144 183.40384054 -562.54777456 178.46704694 -570.30859375 173.5234375 C-576.1976669 169.77359288 -582.09481615 166.03691582 -588 162.3125 C-599.45950384 155.08391965 -610.88429513 147.80093444 -622.31152344 140.52148438 C-634.2386429 132.92432857 -646.17735533 125.34622493 -658.13818359 117.80224609 C-662.25952224 115.2026587 -666.37988899 112.60153255 -670.5 110 C-671.29083984 109.50064941 -672.08167969 109.00129883 -672.89648438 108.48681641 C-678.77266379 104.77508769 -684.64119161 101.05160468 -690.5 97.3125 C-687.32273508 93.49978209 -684.100001 89.85733529 -680.5625 86.375 C-677.9830632 83.83449809 -675.53693553 81.25412299 -673.1875 78.5 C-672.61773438 77.85675781 -672.04796875 77.21351563 -671.4609375 76.55078125 C-669.95188742 74.82829979 -668.48580829 73.06810287 -667.0390625 71.29296875 C-666.1322002 70.25606705 -665.22334784 69.22090242 -664.3125 68.1875 C-663.08466797 66.72957031 -663.08466797 66.72957031 -661.83203125 65.2421875 C-656.54391699 62.17966881 -652.21492404 63.85148542 -646.5 65.3125 C-645.38987549 65.59416016 -644.27975098 65.87582031 -643.13598633 66.16601562 C-639.57787278 67.11115135 -636.03896347 68.11062027 -632.5 69.125 C-629.9354016 69.84693526 -627.37046914 70.5674605 -624.8046875 71.28515625 C-622.93828613 71.80746826 -622.93828613 71.80746826 -621.03417969 72.34033203 C-616.24906707 73.65660161 -611.44436204 74.87871357 -606.625 76.0625 C-605.41154907 76.36124023 -605.41154907 76.36124023 -604.17358398 76.66601562 C-602.64195846 77.04293352 -601.11030322 77.41973069 -599.57861328 77.79638672 C-591.62290496 79.77176461 -583.72556803 81.96984218 -575.828125 84.1640625 C-555.87352573 89.78030264 -555.87352573 89.78030264 -535.75186157 94.75382996 C-533.5 95.3125 -533.5 95.3125 -531.35133362 96.04672241 C-526.98916293 97.45609379 -526.98916293 97.45609379 -522.69143677 96.45297241 C-520.91532142 94.96920885 -519.39792542 93.39727111 -517.85546875 91.671875 C-516.98986076 90.77580536 -516.98986076 90.77580536 -516.10676575 89.8616333 C-514.27262339 87.95288023 -512.48002068 86.01031629 -510.6875 84.0625 C-508.86984739 82.13730395 -507.04446005 80.21987864 -505.2146759 78.30621338 C-504.08058472 77.11481544 -502.95491538 75.9153288 -501.83891296 74.70697021 C-498.0876502 70.69406534 -495.79196018 68.40065231 -490.25 68.1875 C-484.93666479 69.78150056 -482.01022456 73.1259151 -478.5 77.3125 C-476.86976186 80.57297629 -477.0326465 82.69051035 -477.5 86.3125 C-479.40435827 89.38100661 -481.93878548 91.7843868 -484.5 94.3125 C-486.19889199 95.99471063 -487.896953 97.67773115 -489.59301758 99.36279297 C-490.76960822 100.52632651 -491.952948 101.68307929 -493.14331055 102.83251953 C-496.51486589 106.10888255 -496.51486589 106.10888255 -498.5 110.3125 C-497.86312256 110.48789307 -497.22624512 110.66328613 -496.57006836 110.84399414 C-484.7957094 114.09423523 -473.04833725 117.40185853 -461.375 121 C-454.07869173 123.2474715 -446.78411906 125.36704329 -439.390625 127.2734375 C-436.3209078 128.07600999 -433.27781571 128.95458265 -430.234375 129.8515625 C-429.30705566 130.12347412 -428.37973633 130.39538574 -427.42431641 130.67553711 C-425.61226203 131.20922869 -423.80190466 131.74873089 -421.99365234 132.29516602 C-413.88554612 134.83357279 -413.88554612 134.83357279 -405.5 135.3125 C-402.53671082 133.37784797 -402.53671082 133.37784797 -400.375 130.375 C-399.74537354 129.60893433 -399.74537354 129.60893433 -399.10302734 128.82739258 C-397.88176417 127.3388173 -396.69011074 125.82609722 -395.5 124.3125 C-394.38410487 123.03366443 -393.26009293 121.76182661 -392.125 120.5 C-389.88087333 117.96339237 -387.74492759 115.36554458 -385.6484375 112.70703125 C-385.13071777 112.06677002 -384.61299805 111.42650879 -384.07958984 110.7668457 C-383.04446648 109.48614052 -382.02576716 108.19194457 -381.02587891 106.88354492 C-378.27591816 103.52018786 -377.25510556 102.41980447 -372.7890625 101.78515625 C-368.37734276 102.49249849 -367.22843523 103.79425457 -364.5 107.3125 C-361.17905361 112.28934527 -358.72399407 116.14445289 -359.5 122.3125 C-361.1171875 124.734375 -361.1171875 124.734375 -363.375 127.0625 C-364.18582031 127.91070312 -364.99664062 128.75890625 -365.83203125 129.6328125 C-366.71246094 130.51710938 -367.59289062 131.40140625 -368.5 132.3125 C-369.44154716 133.26809035 -370.38295251 134.22382044 -371.32421875 135.1796875 C-373.70093479 137.57335586 -376.09230916 139.95004761 -378.5 142.3125 C-368.77112769 145.48495836 -359.07248097 148.52541876 -349.12084961 150.91967773 C-344.13922956 152.12615899 -339.28032368 153.58275233 -334.39453125 155.125 C-325.93080687 157.74827301 -317.35471908 160.01643 -308.81835938 162.38916016 C-303.54367937 163.85684996 -298.27198009 165.33514806 -293 166.8125 C-291.4687146 167.24091187 -291.4687146 167.24091187 -289.90649414 167.67797852 C-284.5338268 169.18110901 -279.16247765 170.6887478 -273.79296875 172.203125 C-272.68695312 172.51443359 -271.5809375 172.82574219 -270.44140625 173.14648438 C-268.35116388 173.73491395 -266.26128773 174.32464687 -264.171875 174.91601562 C-257.31195203 176.84508121 -250.42153839 178.61817701 -243.5 180.3125 C-243.1121936 179.89505524 -242.72438721 179.47761047 -242.3248291 179.04751587 C-232.20129143 168.17100456 -221.87239505 157.52593473 -211.3515625 147.03369141 C-208.97016511 144.65773325 -206.59426757 142.27636669 -204.21875 139.89453125 C-202.67740441 138.35384538 -201.13574924 136.81346916 -199.59375 135.2734375 C-198.8977771 134.57544037 -198.2018042 133.87744324 -197.48474121 133.15829468 C-193.53073585 129.22293354 -189.47703579 125.46044939 -185.24926758 121.82022095 C-182.78847146 119.69922248 -180.3958708 117.50630941 -178 115.3125 C-174.90268033 112.48672616 -171.7959585 109.68031221 -168.625 106.9375 C-165.64689131 104.35525443 -162.75217491 101.69610169 -159.87084961 99.00732422 C-154.51439994 94.01211444 -149.07157461 89.22670705 -143.35546875 84.640625 C-140.72801633 82.49840661 -138.16607002 80.30125175 -135.61132812 78.07397461 C-127.20338878 70.75485868 -118.43254874 63.97676469 -109.5 57.3125 C-108.8591748 56.83425781 -108.21834961 56.35601562 -107.55810547 55.86328125 C-98.2660468 48.95051242 -88.82174935 42.25698041 -79.33886719 35.609375 C-77.78261467 34.51181614 -76.23765719 33.39826844 -74.6953125 32.28125 C-54.38537691 17.6314604 -25.48677503 0.29272713 0 0 Z " fill="#00205C" transform="translate(837.5,179.6875)"/>
<path d="M0 0 C4.11227124 0.00675423 8.22450506 -0.00397844 12.33676814 -0.01239584 C19.53273131 -0.02473158 26.72862924 -0.02598859 33.9245994 -0.01984541 C44.62567846 -0.01073447 55.32669746 -0.01880235 66.02777193 -0.03013665 C85.14381871 -0.0497849 104.25983834 -0.05215447 123.3758928 -0.04694145 C140.10734707 -0.04238108 156.83879061 -0.04298744 173.57024454 -0.04878179 C175.81615175 -0.04953867 178.06205896 -0.05029465 180.30796618 -0.05104974 C183.69251764 -0.05219496 187.07706909 -0.05334484 190.46162055 -0.05450898 C221.9211654 -0.06521134 253.38070668 -0.06994198 284.84025263 -0.06203882 C286.02571165 -0.06174165 287.21117068 -0.06144447 288.4325527 -0.0611383 C298.05878293 -0.05868946 307.68501312 -0.05607782 317.3112433 -0.05345416 C354.85448033 -0.043353 392.39767263 -0.05170575 429.94090341 -0.07494871 C472.1416435 -0.10103299 514.34235667 -0.11386608 556.54310511 -0.10676096 C561.04466461 -0.10604492 565.5462241 -0.10537053 570.0477836 -0.10472052 C571.71032438 -0.1044658 571.71032438 -0.1044658 573.40645185 -0.10420594 C590.12216701 -0.10190499 606.83785713 -0.10987026 623.55356668 -0.12301199 C642.56884485 -0.13793515 661.58406442 -0.13875043 680.59934135 -0.12094108 C691.23317296 -0.11139104 701.86686782 -0.11278644 712.50069024 -0.13017577 C719.61386965 -0.14069172 726.72694527 -0.13652775 733.84011452 -0.12069573 C737.88622453 -0.11209295 741.93206728 -0.1095674 745.9781632 -0.12496505 C786.50083331 -0.26836574 820.03205162 8.86894237 849.65379404 37.94580324 C872.3239354 60.98159204 884.43915726 92.29759098 884.33391451 124.36867769 C884.33661341 125.74777722 884.34018435 127.12687526 884.34453898 128.50597056 C884.35394021 132.27930914 884.35101488 136.05255047 884.34598343 139.82589365 C884.34270352 143.93738863 884.35101036 148.0488634 884.35780178 152.16035183 C884.36809051 159.36115328 884.37094754 166.56192785 884.36888956 173.76273592 C884.36583663 184.47108261 884.37417006 195.1793996 884.38463881 205.8877405 C884.40397332 226.12774416 884.40960684 246.36773768 884.41075293 266.60774948 C884.41167233 282.2403994 884.41579068 297.87304536 884.42215418 313.50569399 C884.42394929 318.00704773 884.42572892 322.50840147 884.42750393 327.00975521 C884.42794603 328.12883927 884.42838812 329.24792332 884.42884362 330.40091901 C884.44115095 361.87617413 884.44904486 393.35142787 884.44815706 424.82668551 C884.4481259 426.01320859 884.44809475 427.19973168 884.44806264 428.42221001 C884.44789643 434.43586647 884.44769835 440.44952292 884.44749323 446.46317937 C884.44743339 448.25464657 884.44743339 448.25464657 884.44737235 450.08230502 C884.44729147 452.4974943 884.44720788 454.91268357 884.44712157 457.32787284 C884.44589628 494.89730913 884.4609055 532.46670931 884.4882667 570.03613527 C884.51900206 612.25588819 884.5361983 654.47561738 884.53434025 696.6953822 C884.53419099 701.19925078 884.53409358 705.70311935 884.53403162 710.20698794 C884.53399666 711.87040772 884.53399666 711.87040772 884.53396099 713.56743194 C884.53389949 731.39703558 884.54665986 749.22660783 884.56389615 767.05620214 C884.58086758 784.98289783 884.58281465 802.90954769 884.56967751 820.83624699 C884.56229832 831.47894803 884.56591545 842.12150963 884.58556219 852.76419584 C884.59759125 859.88342438 884.59493867 867.00255229 884.58062119 874.12177628 C884.57288282 878.17141585 884.57123454 882.22078626 884.58753589 886.2704065 C884.73990809 926.80326587 875.60704839 960.33912384 846.52244638 989.96875246 C823.48665758 1012.63889382 792.17065865 1024.75411568 760.09957193 1024.64887293 C758.72047241 1024.65157183 757.34137436 1024.65514277 755.96227907 1024.6594974 C752.18894048 1024.66889863 748.41569916 1024.66597331 744.64235597 1024.66094186 C740.530861 1024.65766194 736.41938623 1024.66596879 732.30789779 1024.67276021 C725.10709635 1024.68304893 717.90632178 1024.68590596 710.7055137 1024.68384798 C699.99716702 1024.68079505 689.28885003 1024.68912848 678.58050912 1024.69959723 C658.34050547 1024.71893174 638.10051195 1024.72456526 617.86050015 1024.72571135 C602.22785022 1024.72663075 586.59520427 1024.7307491 570.96255564 1024.7371126 C566.4612019 1024.73890772 561.95984816 1024.74068735 557.45849441 1024.74246235 C556.33941036 1024.74290445 555.22032631 1024.74334655 554.06733062 1024.74380204 C522.59207549 1024.75610937 491.11682175 1024.76400328 459.64156412 1024.76311548 C458.45504103 1024.76308433 457.26851794 1024.76305317 456.04603961 1024.76302107 C450.03238316 1024.76285485 444.01872671 1024.76265677 438.00507026 1024.76245165 C436.81075879 1024.76241176 435.61644732 1024.76237187 434.3859446 1024.76233077 C431.97075533 1024.7622499 429.55556606 1024.7621663 427.14037679 1024.76207999 C389.57094049 1024.76085471 352.00154031 1024.77586392 314.43211435 1024.80322512 C272.21236143 1024.83396048 229.99263224 1024.85115672 187.77286743 1024.84929867 C183.26899885 1024.84914942 178.76513027 1024.849052 174.26126169 1024.84899004 C173.15231517 1024.84896673 172.04336865 1024.84894342 170.90081768 1024.84891941 C153.07121404 1024.84885792 135.2416418 1024.86161828 117.41204749 1024.87885457 C99.48535179 1024.895826 81.55870193 1024.89777307 63.63200264 1024.88463593 C52.9893016 1024.87725674 42.34674 1024.88087387 31.70405379 1024.90052061 C24.58482525 1024.91254968 17.46569733 1024.90989709 10.34647335 1024.89557961 C6.29683377 1024.88784125 2.24746336 1024.88619296 -1.80215688 1024.90249431 C-42.33501625 1025.05486652 -75.87087422 1015.92200681 -105.50050284 986.83740481 C-128.1706442 963.801616 -140.28586605 932.48561707 -140.1806233 900.41453035 C-140.18332221 899.03543083 -140.18689315 897.65633279 -140.19124777 896.27723749 C-140.200649 892.5038989 -140.19772368 888.73065758 -140.19269223 884.9573144 C-140.18941231 880.84581942 -140.19771916 876.73434465 -140.20451058 872.62285622 C-140.21479931 865.42205477 -140.21765633 858.2212802 -140.21559836 851.02047213 C-140.21254543 840.31212544 -140.22087885 829.60380845 -140.23134761 818.89546754 C-140.25068212 798.65546389 -140.25631564 778.41547037 -140.25746172 758.17545857 C-140.25838113 742.54280864 -140.26249947 726.91016269 -140.26886297 711.27751406 C-140.27065809 706.77616032 -140.27243772 702.27480658 -140.27421273 697.77345284 C-140.27487587 696.09482676 -140.27487587 696.09482676 -140.27555241 694.38228904 C-140.28785974 662.90703392 -140.29575366 631.43178017 -140.29486586 599.95652254 C-140.2948347 598.76999945 -140.29480354 597.58347637 -140.29477144 596.36099803 C-140.29460523 590.34734158 -140.29440715 584.33368513 -140.29420203 578.32002868 C-140.29416214 577.12571721 -140.29412225 575.93140575 -140.29408115 574.70090302 C-140.29400027 572.28571375 -140.29391668 569.87052448 -140.29383036 567.45533521 C-140.29260508 529.88589892 -140.30761429 492.31649874 -140.33497549 454.74707277 C-140.36571085 412.52731986 -140.38290709 370.30759066 -140.38104905 328.08782585 C-140.38089979 323.58395727 -140.38080237 319.08008869 -140.38074042 314.57622011 C-140.38071711 313.46727359 -140.3806938 312.35832707 -140.38066978 311.21577611 C-140.38060829 293.38617246 -140.39336865 275.55660022 -140.41060494 257.72700591 C-140.42757638 239.80031021 -140.42952344 221.87366036 -140.4163863 203.94696106 C-140.40900712 193.30426002 -140.41262425 182.66169842 -140.43227098 172.01901221 C-140.44430005 164.89978367 -140.44164747 157.78065576 -140.42732999 150.66143177 C-140.41959162 146.6117922 -140.41794333 142.56242179 -140.43424469 138.51280155 C-140.58661689 97.97994217 -131.45375719 64.44408421 -102.36915518 34.81445559 C-94.42997789 27.00129698 -85.59931501 20.84983822 -75.9233544 15.39160402 C-74.98104971 14.85793215 -74.03874502 14.32426027 -73.06788565 13.77441652 C-67.28918192 10.69775495 -61.3517889 8.32957554 -55.1733544 6.20410402 C-54.15688833 5.84711428 -54.15688833 5.84711428 -53.1198876 5.48291262 C-50.73885604 4.69975437 -48.3445233 4.04127755 -45.9233544 3.39160402 C-44.97957867 3.13459827 -44.03580293 2.87759252 -43.06342794 2.61279871 C-28.90557079 -0.61632559 -14.43578281 -0.03543041 0 0 Z M-49.9233544 51.20410402 C-50.62919668 51.55029787 -51.33503897 51.89649172 -52.06227041 52.25317629 C-57.57195277 55.03568354 -62.32184428 58.26702586 -66.9233544 62.39160402 C-67.72901846 63.04515871 -68.53468252 63.6987134 -69.36476065 64.37207277 C-84.57406334 77.12002266 -93.93255202 95.91250882 -96.9233544 115.39160402 C-97.77482443 125.33875043 -97.6148821 135.35010405 -97.57189353 145.32616357 C-97.55999646 149.38681778 -97.57734746 153.44737266 -97.59077604 157.50800772 C-97.61028382 164.60871618 -97.61140164 171.70923826 -97.60013128 178.80996187 C-97.58341671 189.36938443 -97.59541391 199.92864198 -97.61283914 210.48805641 C-97.64298561 229.35203472 -97.64448596 248.2159332 -97.63348611 267.07992764 C-97.62388654 283.58965369 -97.62319303 300.09934918 -97.63137175 316.6090761 C-97.63243756 318.82624715 -97.6335031 321.04341819 -97.63456838 323.26058924 C-97.6361895 326.60192381 -97.63782181 329.94325838 -97.6394814 333.28459294 C-97.6547308 364.33582472 -97.66025132 395.38704627 -97.64488436 426.43827875 C-97.64430559 427.60798591 -97.64372682 428.77769306 -97.64313052 429.98284589 C-97.63836611 439.48085114 -97.633308 448.97885623 -97.62823279 458.47686131 C-97.60864101 495.52384004 -97.61784491 532.57070977 -97.65064932 569.61767824 C-97.68745425 611.27057319 -97.7045171 652.92340435 -97.69123704 694.5763156 C-97.68987961 699.01971053 -97.68857954 703.46310546 -97.68731047 707.90650042 C-97.6869825 709.00052251 -97.68665454 710.0945446 -97.68631664 711.22171888 C-97.68174476 727.71665106 -97.69235722 744.21152865 -97.71056105 760.70645006 C-97.73121384 779.47022797 -97.73056727 798.23386984 -97.70192865 816.99764008 C-97.68652407 827.4891427 -97.6874894 837.98033559 -97.71245569 848.47182153 C-97.72748231 855.49130914 -97.72045775 862.51055791 -97.69596611 869.53001813 C-97.68263996 873.52183167 -97.67837707 877.51303777 -97.70104739 881.50482303 C-97.86023099 911.6872674 -93.11683955 936.41604138 -71.62257315 958.78613527 C-65.11203359 965.04094169 -57.87029757 969.25806368 -49.9233544 973.39160402 C-49.16538565 973.80281496 -48.4074169 974.2140259 -47.6264794 974.63769777 C-30.95524296 982.94100739 -12.36607786 981.97107281 5.72780115 981.90547424 C9.78223097 981.8952461 13.83660037 981.90839898 17.89102142 981.91844757 C24.98376408 981.93284081 32.07638478 981.9324892 39.16913294 981.92225893 C49.71647878 981.90708746 60.26372233 981.91488543 70.81106756 981.92709216 C89.65166745 981.94812625 108.49221299 981.94634113 127.33281802 981.93477651 C143.82011509 981.9247063 160.30739227 981.92209121 176.79469179 981.92686709 C178.43643591 981.9273254 178.43643591 981.9273254 180.11134658 981.92779297 C184.55447666 981.92903836 188.99760672 981.93031196 193.44073678 981.93163202 C235.10244649 981.94386218 276.76412163 981.93278327 318.425826 981.91124443 C355.42541785 981.89226133 392.42495463 981.89396231 429.42454599 981.9130884 C471.01254755 981.9345146 512.60051858 981.94299609 554.18852489 981.93063934 C558.62315498 981.92935651 563.05778508 981.92810515 567.49241518 981.92686709 C569.13024404 981.92639262 569.13024404 981.92639262 570.80116035 981.92590857 C587.2772497 981.92136198 603.75331696 981.9266736 620.22940325 981.9367853 C638.96589987 981.94822706 657.70233375 981.94535285 676.43882256 981.92366232 C686.92019506 981.91192813 697.40143163 981.9111346 707.88280057 981.92624702 C714.88921908 981.93523363 721.8955289 981.92960357 728.90193134 981.91222794 C732.89032452 981.90273848 736.87844818 981.89940526 740.86683261 981.91385187 C762.81515393 982.21971871 762.81515393 982.21971871 784.0766456 977.39160402 C785.18024158 976.99313281 786.28383756 976.59466159 787.42087584 976.18411549 C807.42932949 968.57526398 823.52054104 954.6741989 832.8266456 935.26660402 C840.9110959 916.77715788 841.80930863 899.51363701 841.71898337 879.56690795 C841.70618694 875.50467272 841.72264365 871.44253118 841.73520004 867.3803096 C841.75318372 860.27532421 841.75275705 853.17052908 841.73996424 846.06553515 C841.72099236 835.49985328 841.73075125 824.93433088 841.74600577 814.36864996 C841.77229325 795.49426612 841.77006892 776.61996706 841.75561121 757.74557521 C841.74302089 741.22741845 841.73975576 724.70929272 841.74572443 708.19113215 C841.74610635 707.09436749 841.74648828 705.99760283 841.74688178 704.86760287 C841.74843854 700.41518393 841.75003054 695.962765 841.7516806 691.51034608 C841.7669673 649.76363438 841.75312164 608.01697658 841.72619611 566.2702732 C841.70247067 529.20334743 841.70459079 492.13650756 841.72850107 455.06958254 C841.75529097 413.39950356 841.76588141 371.72947219 841.75043975 330.05938579 C841.74883623 325.61488776 841.74727202 321.17038972 841.74572443 316.72589167 C841.74513135 315.08443651 841.74513135 315.08443651 841.74452629 313.40982064 C841.73884567 296.90515505 841.74547775 280.40052395 841.75812219 263.89586313 C841.77243268 245.12323156 841.76881419 226.35069783 841.74171847 207.57807841 C841.72706395 197.07953128 841.72603952 186.58119616 841.74494935 176.08265464 C841.75619882 169.06098851 841.74911609 162.0394916 841.7274255 155.01785046 C841.71558569 151.02318824 841.71134995 147.02894575 841.72945542 143.03429743 C841.85436492 113.26405706 837.50243108 88.95512626 816.4828956 66.63769777 C798.88325596 49.68510371 776.3009515 43.05422559 752.30983518 43.13433512 C750.95370375 43.13163605 749.59757382 43.12806501 748.24144669 43.12371065 C744.53189996 43.11431173 740.82245219 43.11723397 737.11290079 43.12226619 C733.07060211 43.12554669 729.02832396 43.1172388 724.98603194 43.11044784 C717.90681266 43.10016014 710.82762073 43.09730191 703.74839472 43.09936007 C693.22099908 43.10241322 682.69363365 43.09407912 672.16624389 43.08361081 C652.2691035 43.06427785 632.37197343 43.05864287 612.47482475 43.0574967 C597.10864411 43.05657732 581.7424675 43.05245914 566.37628816 43.04609545 C561.95184037 43.04430034 557.52739258 43.04252071 553.10294478 43.04074569 C552.00299023 43.0403036 550.90303569 43.0398615 549.76974918 43.03940601 C518.83391571 43.02709919 487.89808363 43.01920472 456.9622476 43.02009256 C455.21303955 43.0201393 455.21303955 43.0201393 453.42849396 43.02018698 C447.51812531 43.02035319 441.60775667 43.02055128 435.69738802 43.0207564 C433.93668216 43.02081623 433.93668216 43.02081623 432.14040649 43.02087728 C429.76668967 43.02095815 427.39297285 43.02104175 425.01925603 43.02112806 C388.08760517 43.02235358 351.15599103 43.00733944 314.22435068 42.97998293 C272.72427663 42.94925503 231.22422671 42.93205084 189.72414057 42.93390937 C185.298121 42.93405863 180.87210144 42.93415605 176.44608187 42.93421801 C174.81140484 42.93425297 174.81140484 42.93425297 173.14370403 42.93428864 C155.61477362 42.93435016 138.08587512 42.92158459 120.5569542 42.90435348 C102.937247 42.88739145 85.31758644 42.88542766 67.69787559 42.89857212 C57.23450746 42.90595727 46.77128112 42.90231624 36.30792805 42.88268744 C29.31206684 42.87067394 22.31630815 42.87329374 15.32045161 42.88762844 C11.33881191 42.89537981 7.35744624 42.8969771 3.37582603 42.88071373 C-24.0598335 42.71651088 -24.0598335 42.71651088 -49.9233544 51.20410402 Z " fill="#00205C" transform="translate(139.9233543984592,-0.3916040239855647)"/>
</svg>
